<svg width="10" height="10" viewBox="0 0 10 10" fill="none" xmlns="http://www.w3.org/2000/svg">
<path d="M9.96642 8.70825L8.54005 3.00259C8.46583 2.70591 8.21896 2.50024 7.93712 2.50024H6.76037C6.83009 2.30396 6.87521 2.09556 6.87521 1.87524C6.87521 0.839697 6.03576 0.000244141 5.00021 0.000244141C3.96466 0.000244141 3.12521 0.839697 3.12521 1.87524C3.12521 2.09556 3.17013 2.30396 3.24005 2.50024H2.0633C1.78146 2.50024 1.53439 2.7061 1.46037 3.00259L0.0336079 8.70825C-0.129087 9.35884 0.319936 10 0.9381 10H9.06212C9.68009 10 10.1291 9.35884 9.96642 8.70825ZM5.00001 2.50005C4.65548 2.50005 4.37501 2.21958 4.37501 1.87505C4.37501 1.53052 4.65548 1.25005 5.00001 1.25005C5.34455 1.25005 5.62501 1.53052 5.62501 1.87505C5.62501 2.21958 5.34455 2.50005 5.00001 2.50005Z" fill="black"/>
</svg>
